
<svg version="1.0" xmlns="http://www.w3.org/2000/svg"
 width="500.000000pt" height="500.000000pt" viewBox="0 0 500.000000 500.000000"
 preserveAspectRatio="xMidYMid meet">

<g transform="translate(0.000000,500.000000) scale(0.100000,-0.100000)"
fill="#000000" stroke="none">
<path d="M2380 4650 c-6 -11 -7 -20 -2 -20 5 0 13 -48 16 -107 7 -112 32 -243
47 -243 4 0 11 17 14 38 9 55 34 122 61 164 13 21 24 41 24 45 0 15 -53 -65
-77 -117 l-25 -55 -15 50 c-7 28 -15 98 -16 157 -1 60 -5 108 -9 108 -4 0 -12
-9 -18 -20z"/>
<path d="M2017 4653 c-2 -5 -10 -32 -17 -62 -18 -78 -9 -215 19 -269 12 -23
19 -47 16 -52 -9 -15 -164 -11 -219 5 -64 19 -76 19 -47 -1 28 -20 184 -41
258 -36 l52 4 -24 36 c-41 63 -58 143 -50 234 6 62 10 78 21 74 10 -4 14 4 14
29 0 32 -14 54 -23 38z"/>
<path d="M2655 4620 c3 -5 8 -10 11 -10 2 0 4 5 4 10 0 6 -5 10 -11 10 -5 0
-7 -4 -4 -10z"/>
<path d="M2040 4555 c0 -25 32 -98 57 -133 26 -35 138 -111 164 -112 20 0 29
21 28 63 l-1 32 -9 -32 c-12 -41 -32 -42 -85 -7 -69 46 -104 87 -126 146 -21
59 -28 70 -28 43z"/>
<path d="M3007 4543 c-4 -3 -7 -18 -7 -32 0 -24 1 -24 15 -5 22 29 15 61 -8
37z"/>
<path d="M2651 4429 c-1 -85 2 -109 15 -119 12 -11 18 -10 32 4 16 17 16 17
-3 14 -18 -3 -21 4 -27 91 -10 131 -16 135 -17 10z"/>
<path d="M2291 4434 c0 -11 3 -14 6 -6 3 7 2 16 -1 19 -3 4 -6 -2 -5 -13z"/>
<path d="M2925 4330 c-45 -107 -43 -140 8 -139 29 0 30 1 10 9 -30 12 -29 32
7 129 16 44 25 83 21 85 -5 3 -25 -35 -46 -84z"/>
<path d="M1673 4324 c15 -48 37 -158 37 -181 0 -13 9 -36 20 -50 11 -14 20
-29 20 -33 0 -10 -115 -80 -132 -80 -8 0 -23 -7 -34 -16 -18 -14 -16 -15 26
-10 24 2 46 10 48 15 2 6 10 11 19 11 8 0 29 11 47 25 18 14 47 28 64 31 42 9
40 19 -8 46 -24 14 -40 30 -40 42 0 19 0 19 21 0 19 -16 18 -12 -5 25 -23 37
-56 112 -56 128 0 3 7 3 15 -1 8 -3 15 -1 15 4 0 6 0 13 1 16 0 4 -14 16 -31
27 -31 20 -32 20 -27 1z"/>
<path d="M2342 4300 c0 -14 2 -19 5 -12 2 6 2 18 0 25 -3 6 -5 1 -5 -13z"/>
<path d="M3285 4223 c-27 -8 -63 -18 -80 -23 -25 -6 -26 -8 -7 -9 14 -1 22 -7
22 -19 0 -24 -16 -42 -67 -76 -52 -35 -89 -86 -63 -86 16 0 180 161 180 176 0
8 8 14 18 14 9 0 28 9 42 20 29 23 23 23 -45 3z"/>
<path d="M3100 4180 c-12 -8 -12 -10 5 -10 11 0 27 5 35 10 12 8 12 10 -5 10
-11 0 -27 -5 -35 -10z"/>
<path d="M3348 4014 c-16 -8 -28 -18 -28 -22 0 -4 -29 -25 -65 -46 -36 -21
-65 -40 -65 -43 0 -12 63 11 83 30 13 12 44 34 70 49 26 15 47 32 47 38 0 13
-10 12 -42 -6z"/>
<path d="M1380 3982 c0 -12 18 -18 81 -27 51 -7 79 10 32 19 -79 15 -113 17
-113 8z"/>
<path d="M2326 3957 c3 -10 9 -15 12 -12 3 3 0 11 -7 18 -10 9 -11 8 -5 -6z"/>
<path d="M1720 3935 c-10 -12 -10 -15 3 -15 19 0 31 16 18 24 -5 3 -14 -1 -21
-9z"/>
<path d="M1490 3917 c0 -8 23 -26 50 -41 28 -15 50 -29 50 -31 0 -3 -29 -46
-63 -97 l-64 -93 -129 -57 c-71 -32 -135 -58 -142 -58 -7 0 -10 -4 -7 -10 4
-6 58 -9 133 -9 129 2 139 6 24 11 -35 2 -61 7 -60 13 3 10 50 29 153 63 28
10 57 25 65 34 8 10 33 24 55 32 36 13 37 15 12 15 -48 2 -44 28 10 84 28 29
56 62 62 73 10 20 7 22 -32 28 -23 4 -59 18 -79 32 -27 17 -38 20 -38 11z"/>
<path d="M3385 3923 c-22 -3 -44 -9 -50 -15 -13 -12 126 0 140 13 9 9 -12 9
-90 2z"/>
<path d="M2783 3870 c-33 -37 -43 -56 -43 -83 0 -20 -4 -38 -8 -41 -4 -3 -39
-2 -78 2 l-69 7 3 47 c2 25 -2 49 -8 53 -5 3 -10 -1 -10 -9 0 -8 -7 -19 -16
-24 -13 -7 -14 -13 -6 -29 8 -14 8 -23 0 -31 -15 -15 -122 -16 -148 -2 -13 7
-21 6 -30 -5 -8 -9 -30 -15 -59 -15 -43 0 -48 3 -65 35 -11 19 -25 35 -33 35
-11 0 -10 -6 2 -31 9 -17 14 -33 12 -36 -3 -3 -48 -17 -101 -33 -97 -28 -165
-61 -179 -87 -5 -8 -21 -19 -35 -26 -22 -10 19 -12 222 -15 164 -1 254 -6 263
-13 8 -8 14 -38 15 -88 l1 -76 6 75 c4 41 10 81 14 88 12 19 550 17 566 -2 9
-10 11 -93 11 -291 -2 -242 0 -279 14 -294 10 -11 19 -44 22 -82 5 -54 1 -85
-30 -199 -21 -74 -48 -153 -61 -175 -13 -22 -57 -73 -100 -114 l-76 -74 -127
6 c-70 3 -163 2 -207 -2 -44 -4 -85 -6 -91 -4 -6 2 -14 30 -17 62 -2 32 -12
71 -21 87 -15 28 -16 28 -12 4 3 -14 8 -77 12 -140 4 -63 8 -131 10 -150 2
-19 4 -89 4 -155 l0 -120 -41 -38 c-43 -38 -72 -47 -86 -24 -7 11 -12 75 -14
192 -2 51 28 166 31 120 1 -26 3 -27 10 -10 10 24 2 64 -16 85 -7 9 -18 63
-24 125 -12 133 -12 127 -1 121 5 -4 4 5 -2 18 -13 27 -27 25 -27 -4 0 -13
-14 -27 -40 -40 -64 -33 -80 -28 -131 42 -24 34 -50 73 -58 87 -22 40 -61 211
-61 269 0 51 1 53 46 85 l46 32 -56 5 c-30 3 -60 10 -65 15 -6 6 -12 62 -13
125 l-3 115 -69 3 c-62 3 -68 1 -62 -15 4 -10 10 -46 13 -79 l6 -62 -101 -7
c-56 -4 -110 -13 -119 -20 -29 -21 -12 -24 47 -9 30 8 80 14 112 14 47 0 58
-3 58 -16 0 -13 3 -14 14 -5 8 7 27 11 43 9 33 -4 42 -28 79 -232 13 -76 26
-143 27 -150 1 -6 -9 -11 -23 -11 -21 0 -37 20 -103 123 -53 83 -77 129 -72
140 6 15 7 15 17 -3 16 -30 18 -31 29 -15 15 24 62 -35 56 -69 -5 -27 17 -81
33 -81 16 0 11 63 -6 88 -11 16 -14 34 -9 58 8 46 -25 104 -60 104 -13 0 -25
5 -27 12 -5 14 -39 -34 -57 -79 -13 -31 -11 -34 32 -90 25 -32 60 -87 79 -122
19 -36 41 -68 49 -71 72 -33 73 -35 86 -90 8 -30 14 -104 16 -165 l2 -110 -60
-8 c-33 -4 -125 -22 -204 -40 l-143 -31 6 -50 c3 -28 9 -87 12 -132 l7 -81
-49 -28 c-70 -40 -299 -163 -368 -197 l-59 -30 676 -676 677 -677 670 670
c369 368 669 674 667 680 -4 13 -66 43 -217 106 -69 29 -133 59 -143 67 -35
31 -40 85 -16 190 12 53 26 103 32 110 16 21 -5 33 -84 47 -209 38 -339 64
-350 70 -16 10 -5 93 31 234 27 108 31 116 74 156 25 23 46 46 46 50 0 5 -5 4
-12 -3 -38 -38 -48 16 -28 148 19 125 31 162 46 149 24 -20 26 -48 5 -78 -25
-35 -30 -121 -7 -121 17 0 29 41 21 73 -4 15 4 43 23 78 27 51 28 59 17 87 -8
17 -11 33 -8 36 15 14 -12 4 -29 -11 -14 -13 -18 -13 -18 -2 0 20 12 34 37 48
19 10 27 7 54 -17 20 -18 34 -42 39 -68 l7 -39 8 33 c7 29 11 32 44 33 20 0
52 7 71 14 35 13 34 13 -38 14 -72 1 -126 18 -134 42 -6 18 13 153 23 165 12
14 2 42 -24 71 -10 12 -17 26 -14 30 3 5 -3 17 -14 26 -10 9 -19 24 -19 32 0
8 -6 15 -14 15 -17 0 -126 118 -126 137 0 7 -5 13 -12 13 -6 0 -21 9 -32 19
-26 23 -147 75 -199 85 -29 5 -37 11 -33 22 3 9 6 23 6 32 0 9 18 41 40 70 22
29 40 55 40 57 0 14 -19 -1 -57 -45z m-805 -1501 c-6 -16 -15 -28 -22 -26 -12
4 -37 146 -29 160 3 5 18 -17 34 -47 24 -48 26 -61 17 -87z m189 46 c9 -40 8
-46 -12 -65 -27 -25 -33 -25 -55 3 -15 18 -21 20 -32 9 -15 -15 0 -47 23 -47
34 0 10 -145 -26 -159 -22 -8 -18 -32 9 -49 26 -18 51 -79 42 -103 -6 -17 15
-112 37 -164 18 -45 14 -56 -29 -70 -39 -13 -45 -30 -10 -30 15 0 51 22 91 55
37 30 73 55 79 55 6 0 47 29 91 65 44 35 99 75 123 87 l43 23 17 -22 c9 -12
52 -41 95 -64 43 -23 81 -48 84 -56 3 -8 -5 -36 -17 -63 -12 -27 -20 -56 -17
-64 8 -20 -30 -31 -78 -22 -34 7 -47 28 -25 41 22 13 9 34 -25 41 -20 3 -44
17 -54 30 l-19 25 -7 -30 c-11 -50 -86 -117 -212 -190 -28 -17 -54 -35 -58
-41 -8 -12 58 16 97 42 15 10 47 21 72 23 26 3 63 12 84 21 55 24 198 30 243
11 l36 -15 13 -98 12 -98 -30 -26 c-57 -49 -107 -85 -118 -85 -6 0 -18 -6 -27
-13 -21 -18 -31 0 -22 44 4 22 21 50 46 75 39 39 40 42 24 59 -9 10 -17 35
-18 54 -1 20 -2 36 -3 36 -1 0 -33 -13 -72 -30 -61 -26 -75 -28 -120 -21 -29
4 -54 6 -57 3 -11 -11 9 -22 41 -22 29 0 34 -3 34 -24 0 -27 -21 -82 -32 -85
-5 0 -17 -1 -28 -1 -36 0 -37 -31 -1 -60 23 -20 36 -44 51 -96 11 -38 20 -84
20 -103 0 -28 3 -32 18 -26 9 4 28 10 42 13 l25 5 -29 -31 c-23 -25 -33 -29
-47 -22 -27 15 -29 13 -29 -22 0 -44 -35 -101 -58 -94 -9 2 -50 8 -91 11 -45
5 -115 22 -180 45 l-106 38 3 59 c3 43 9 64 27 83 14 16 25 43 29 75 5 47 -2
44 -18 -7 -9 -29 -25 -21 -30 15 -3 17 -8 120 -10 227 -2 107 -9 208 -15 223
-6 16 -11 42 -11 59 0 35 -55 200 -77 235 -10 16 -12 27 -6 36 6 6 29 68 52
137 23 69 45 131 49 139 6 11 94 48 143 60 3 0 10 -19 16 -44z m759 -57 c-9
-52 -12 -58 -39 -57 -12 0 -17 3 -10 5 7 3 9 12 7 19 -6 16 25 75 39 75 6 0 7
-18 3 -42z m-166 -383 c36 -19 45 -46 27 -81 -14 -27 -14 -27 -26 -6 -6 12
-26 29 -44 38 -45 23 -45 23 -17 44 30 24 25 23 60 5z m-285 -555 c-10 -19
-14 -42 -11 -56 4 -14 2 -24 -4 -24 -5 0 -10 21 -10 46 0 52 16 92 32 76 6 -6
4 -21 -7 -42z m90 30 c4 -6 1 -27 -6 -47 -10 -32 -9 -38 6 -49 10 -7 22 -15
28 -17 6 -2 7 -8 4 -14 -5 -8 -18 -5 -42 10 -33 21 -34 24 -28 67 3 25 7 48
10 53 6 10 21 9 28 -3z m8 -220 c-3 -11 -9 -17 -14 -14 -14 8 -10 34 5 34 9 0
12 -7 9 -20z"/>
<path d="M2349 1873 c-13 -16 -12 -17 4 -4 9 7 17 15 17 17 0 8 -8 3 -21 -13z"/>
<path d="M2361 1754 c0 -11 3 -14 6 -6 3 7 2 16 -1 19 -3 4 -6 -2 -5 -13z"/>
<path d="M2194 1676 c22 -18 56 -21 56 -6 0 6 -6 10 -12 10 -7 0 -24 3 -38 6
-24 5 -24 5 -6 -10z"/>
<path d="M2063 1595 c0 -33 2 -45 4 -27 2 18 2 45 0 60 -2 15 -4 0 -4 -33z"/>
<path d="M2039 1535 c-1 -5 0 -14 1 -20 1 -5 5 -37 10 -70 l7 -60 2 65 c0 36
-4 72 -9 80 -5 8 -10 11 -11 5z"/>
<path d="M2160 1515 c0 -16 5 -37 10 -45 7 -12 10 -8 10 15 0 17 -5 37 -10 45
-7 12 -10 8 -10 -15z"/>
<path d="M2201 1233 c0 -62 2 -113 7 -113 4 0 6 39 4 87 -4 138 -9 148 -11 26z"/>
<path d="M2167 1223 c-11 -10 -8 -73 3 -73 6 0 10 18 10 40 0 41 -2 45 -13 33z"/>
<path d="M2300 3896 c0 -10 40 -76 46 -76 3 0 -2 12 -10 28 -22 40 -36 58 -36
48z"/>
<path d="M3393 3860 c-18 -11 -33 -21 -33 -23 0 -11 51 8 66 24 22 25 8 24
-33 -1z"/>
<path d="M3233 3828 c-13 -6 -23 -15 -23 -20 0 -14 28 -9 44 8 27 26 18 31
-21 12z"/>
<path d="M1850 3820 c8 -5 20 -10 25 -10 6 0 3 5 -5 10 -8 5 -19 10 -25 10 -5
0 -3 -5 5 -10z"/>
<path d="M2893 3768 c-13 -6 -23 -15 -23 -20 0 -13 13 -9 40 12 27 21 18 25
-17 8z"/>
<path d="M3280 3765 c-15 -8 -29 -10 -36 -4 -7 6 -17 2 -29 -11 -15 -16 -16
-22 -5 -35 7 -9 19 -14 27 -11 8 3 16 -1 20 -10 3 -8 17 -21 32 -29 54 -29 56
-32 41 -50 -12 -14 -9 -15 28 -9 29 4 42 3 42 -5 0 -6 17 -11 40 -11 22 0 40
-4 40 -9 0 -14 -74 -59 -121 -72 -56 -16 -69 -26 -69 -53 1 -19 2 -19 11 -3 5
9 20 17 31 17 20 0 156 73 168 90 3 4 32 14 65 23 l60 16 -51 0 c-103 2 -264
58 -305 108 -12 13 -9 20 21 44 36 31 32 37 -10 14z"/>
<path d="M1665 3650 c3 -5 8 -10 11 -10 2 0 4 5 4 10 0 6 -5 10 -11 10 -5 0
-7 -4 -4 -10z"/>
<path d="M1818 3623 c7 -3 16 -2 19 1 4 3 -2 6 -13 5 -11 0 -14 -3 -6 -6z"/>
<path d="M1868 3458 l-3 -83 -172 -3 -173 -2 0 -125 0 -125 40 0 39 0 3 83 3
82 130 0 130 0 3 -127 3 -128 249 0 250 0 0 130 0 130 45 0 45 0 0 -130 0
-130 255 0 255 0 0 255 0 255 -255 0 -255 0 0 -85 0 -85 -45 0 -45 0 0 85 0
85 -250 0 -249 0 -3 -82z m252 -173 l0 -175 -85 0 -85 0 0 175 0 175 85 0 85
0 0 -175z m598 3 l-3 -173 -85 0 -85 0 -3 173 -2 172 90 0 90 0 -2 -172z"/>
<path d="M1530 3515 c11 -13 9 -20 -10 -40 -36 -39 -137 -85 -184 -85 -59 0
-76 -14 -34 -29 49 -17 148 -26 148 -13 0 6 -10 12 -22 14 -34 5 -31 22 9 43
62 33 154 105 148 115 -3 6 -20 10 -37 10 -26 0 -29 -2 -18 -15z"/>
<path d="M1650 3473 c-14 -3 -29 -9 -34 -14 -17 -15 38 -10 60 6 20 15 17 16
-26 8z"/>
<path d="M1785 3462 c-12 -9 -24 -25 -28 -34 -5 -15 0 -18 33 -18 39 0 40 1
40 35 0 39 -13 44 -45 17z"/>
<path d="M3312 3399 c2 -8 31 -28 64 -46 35 -19 58 -38 58 -48 -1 -12 9 -15
48 -15 30 0 47 4 43 10 -3 6 -11 10 -16 10 -14 0 -130 56 -168 81 -23 16 -32
18 -29 8z"/>
<path d="M3570 3270 c0 -5 5 -10 10 -10 6 0 10 5 10 10 0 6 -4 10 -10 10 -5 0
-10 -4 -10 -10z"/>
<path d="M2413 3190 c0 -36 2 -50 4 -32 2 17 2 47 0 65 -2 17 -4 3 -4 -33z"/>
<path d="M3240 3241 c0 -6 4 -13 10 -16 6 -3 7 1 4 9 -7 18 -14 21 -14 7z"/>
<path d="M3508 3244 c-3 -3 -43 -9 -87 -13 -45 -5 -84 -11 -87 -14 -12 -12 23
-46 73 -71 30 -14 52 -30 49 -35 -5 -8 73 -3 82 4 2 2 -28 12 -66 24 -59 18
-105 45 -91 54 2 2 37 13 77 25 39 13 72 25 72 28 0 6 -16 5 -22 -2z"/>
<path d="M1430 3124 c-17 -20 -29 -38 -27 -40 6 -7 77 28 77 37 0 4 -5 11 -10
14 -6 4 -8 11 -5 16 13 21 -5 7 -35 -27z"/>
<path d="M2294 2993 c-66 -3 -83 -7 -88 -21 -3 -9 -8 -22 -11 -27 -6 -12 42
-43 84 -55 26 -7 34 -3 75 39 45 46 58 73 34 69 -7 -1 -50 -4 -94 -5z"/>
<path d="M3182 2833 c-18 -32 -16 -51 4 -31 9 8 14 24 12 34 -4 18 -5 17 -16
-3z"/>
<path d="M2265 2694 c-22 -8 -65 -18 -95 -22 -55 -7 -71 -24 -28 -30 13 -2 30
-10 38 -17 31 -27 136 -38 329 -33 l189 5 76 38 c42 20 76 41 76 45 0 13 -98
20 -330 25 -180 4 -222 2 -255 -11z m395 -7 c50 -3 48 -31 -3 -32 -24 -1 -42
-8 -51 -21 -13 -17 -30 -19 -156 -22 -131 -3 -144 -2 -160 16 -11 11 -25 22
-32 25 -24 8 1 20 69 33 44 9 108 11 183 8 63 -3 131 -7 150 -7z"/>
<path d="M2238 2560 c12 -5 22 -14 22 -19 0 -10 30 -24 37 -17 10 9 -38 46
-59 45 l-23 0 23 -9z"/>
<path d="M2215 2350 c-3 -5 -1 -10 4 -10 6 0 11 5 11 10 0 6 -2 10 -4 10 -3 0
-8 -4 -11 -10z"/>
</g>
</svg>
